<svg width="25" height="25" viewBox="0 0 25 25" fill="none" xmlns="http://www.w3.org/2000/svg">
<path d="M17.7083 10.4168H19.7917C21.875 10.4168 22.9167 9.37516 22.9167 7.29183V5.2085C22.9167 3.12516 21.875 2.0835 19.7917 2.0835H17.7083C15.625 2.0835 14.5833 3.12516 14.5833 5.2085V7.29183C14.5833 9.37516 15.625 10.4168 17.7083 10.4168Z" stroke="#949494" stroke-width="1.5" stroke-miterlimit="10" stroke-linecap="round" stroke-linejoin="round"/>
<path d="M5.20834 22.9168H7.29167C9.375 22.9168 10.4167 21.8752 10.4167 19.7918V17.7085C10.4167 15.6252 9.375 14.5835 7.29167 14.5835H5.20834C3.125 14.5835 2.08334 15.6252 2.08334 17.7085V19.7918C2.08334 21.8752 3.125 22.9168 5.20834 22.9168Z" stroke="#949494" stroke-width="1.5" stroke-miterlimit="10" stroke-linecap="round" stroke-linejoin="round"/>
<path d="M6.25 10.4168C8.55119 10.4168 10.4167 8.55135 10.4167 6.25016C10.4167 3.94898 8.55119 2.0835 6.25 2.0835C3.94882 2.0835 2.08334 3.94898 2.08334 6.25016C2.08334 8.55135 3.94882 10.4168 6.25 10.4168Z" stroke="#949494" stroke-width="1.5" stroke-miterlimit="10" stroke-linecap="round" stroke-linejoin="round"/>
<path d="M18.75 22.9168C21.0512 22.9168 22.9167 21.0513 22.9167 18.7502C22.9167 16.449 21.0512 14.5835 18.75 14.5835C16.4488 14.5835 14.5833 16.449 14.5833 18.7502C14.5833 21.0513 16.4488 22.9168 18.75 22.9168Z" stroke="#949494" stroke-width="1.5" stroke-miterlimit="10" stroke-linecap="round" stroke-linejoin="round"/>
</svg>
