<svg width="16" height="17" viewBox="0 0 16 17" fill="none" xmlns="http://www.w3.org/2000/svg">
<path d="M2.65926 10.2735L1.64594 9.26011C1.2326 8.84678 1.2326 8.16677 1.64594 7.75344L2.65926 6.74009C2.8326 6.56676 2.9726 6.22676 2.9726 5.98676V4.55341C2.9726 3.96674 3.4526 3.48676 4.03927 3.48676H5.4726C5.7126 3.48676 6.0526 3.34678 6.22593 3.17344L7.23926 2.1601C7.65259 1.74676 8.3326 1.74676 8.74593 2.1601L9.75928 3.17344C9.93261 3.34678 10.2726 3.48676 10.5126 3.48676H11.9459C12.5326 3.48676 13.0126 3.96674 13.0126 4.55341V5.98676C13.0126 6.22676 13.1526 6.56676 13.3259 6.74009L14.3393 7.75344C14.7526 8.16677 14.7526 8.84678 14.3393 9.26011L13.3259 10.2735C13.1526 10.4468 13.0126 10.7868 13.0126 11.0268V12.4601C13.0126 13.0467 12.5326 13.5268 11.9459 13.5268H10.5126C10.2726 13.5268 9.93261 13.6668 9.75928 13.8401L8.74593 14.8535C8.3326 15.2668 7.65259 15.2668 7.23926 14.8535L6.22593 13.8401C6.0526 13.6668 5.7126 13.5268 5.4726 13.5268H4.03927C3.4526 13.5268 2.9726 13.0467 2.9726 12.4601V11.0268C2.9726 10.7801 2.8326 10.4401 2.65926 10.2735Z" stroke="#68B054" stroke-width="1.2" stroke-linecap="round" stroke-linejoin="round"/>
<path d="M6 10.5L10 6.5" stroke="#68B054" stroke-width="1.2" stroke-linecap="round" stroke-linejoin="round"/>
<path d="M9.66305 10.1668H9.66903" stroke="#68B054" stroke-width="1.2" stroke-linecap="round" stroke-linejoin="round"/>
<path d="M6.32967 6.83333H6.33566" stroke="#68B054" stroke-width="1.2" stroke-linecap="round" stroke-linejoin="round"/>
</svg>
