<svg width="19" height="19" viewBox="0 0 19 19" fill="none" xmlns="http://www.w3.org/2000/svg">
<path d="M16.625 4.73372C13.9888 4.47247 11.3367 4.33789 8.6925 4.33789C7.125 4.33789 5.5575 4.41706 3.99 4.57539L2.375 4.73372" stroke="#949494" stroke-width="1.5" stroke-linecap="round" stroke-linejoin="round"/>
<path d="M6.72925 3.93426L6.90341 2.89717C7.03008 2.14509 7.12508 1.58301 8.463 1.58301H10.5372C11.8751 1.58301 11.978 2.17676 12.0967 2.90509L12.2709 3.93426" stroke="#949494" stroke-width="1.5" stroke-linecap="round" stroke-linejoin="round"/>
<path d="M14.923 7.23535L14.4084 15.2074C14.3213 16.4504 14.2501 17.4162 12.0413 17.4162H6.95881C4.75006 17.4162 4.67882 16.4504 4.59173 15.2074L4.07715 7.23535" stroke="#949494" stroke-width="1.5" stroke-linecap="round" stroke-linejoin="round"/>
<path d="M8.17798 13.0625H10.8142" stroke="#949494" stroke-width="1.5" stroke-linecap="round" stroke-linejoin="round"/>
<path d="M7.52075 9.89551H11.4791" stroke="#949494" stroke-width="1.5" stroke-linecap="round" stroke-linejoin="round"/>
</svg>
