<svg width="16" height="17" viewBox="0 0 16 17" fill="none" xmlns="http://www.w3.org/2000/svg">
<path d="M11.3334 12.7868H8.66671L5.70003 14.7601C5.26003 15.0535 4.66671 14.7402 4.66671 14.2068V12.7868C2.66671 12.7868 1.33337 11.4535 1.33337 9.45349V5.45345C1.33337 3.45345 2.66671 2.12012 4.66671 2.12012H11.3334C13.3334 2.12012 14.6667 3.45345 14.6667 5.45345V9.45349C14.6667 11.4535 13.3334 12.7868 11.3334 12.7868Z" stroke="#68B054" stroke-width="1.2" stroke-miterlimit="10" stroke-linecap="round" stroke-linejoin="round"/>
<path d="M7.99996 8.07324V7.93327C7.99996 7.47993 8.27998 7.23992 8.55998 7.04659C8.83331 6.85992 9.10661 6.61993 9.10661 6.17993C9.10661 5.5666 8.61329 5.07324 7.99996 5.07324C7.38663 5.07324 6.89331 5.5666 6.89331 6.17993" stroke="#68B054" stroke-width="1.2" stroke-linecap="round" stroke-linejoin="round"/>
<path d="M7.99696 9.66634H8.00296" stroke="#68B054" stroke-width="1.2" stroke-linecap="round" stroke-linejoin="round"/>
</svg>
