<svg width="16" height="17" viewBox="0 0 16 17" fill="none" xmlns="http://www.w3.org/2000/svg">
<path d="M11.9867 7.69334V10.36C11.9867 10.5333 11.98 10.7 11.96 10.86C11.8067 12.66 10.7467 13.5533 8.79338 13.5533H8.52671C8.36005 13.5533 8.20004 13.6333 8.10004 13.7667L7.30005 14.8333C6.94672 15.3067 6.37337 15.3067 6.02004 14.8333L5.22003 13.7667C5.13336 13.6533 4.94004 13.5533 4.79338 13.5533H4.52671C2.40005 13.5533 1.33337 13.0267 1.33337 10.36V7.69334C1.33337 5.74001 2.23338 4.68001 4.02671 4.52667C4.18671 4.50667 4.35338 4.5 4.52671 4.5H8.79338C10.92 4.5 11.9867 5.56667 11.9867 7.69334Z" stroke="#68B054" stroke-width="1.2" stroke-miterlimit="10" stroke-linecap="round" stroke-linejoin="round"/>
<path d="M14.6533 5.02684V7.6935C14.6533 9.6535 13.7533 10.7068 11.9599 10.8602C11.9799 10.7002 11.9866 10.5335 11.9866 10.3602V7.6935C11.9866 5.56684 10.9199 4.50016 8.79327 4.50016H4.52661C4.35328 4.50016 4.18661 4.50684 4.02661 4.52684C4.17994 2.7335 5.23994 1.8335 7.19328 1.8335H11.4599C13.5866 1.8335 14.6533 2.90017 14.6533 5.02684Z" stroke="#68B054" stroke-width="1.2" stroke-miterlimit="10" stroke-linecap="round" stroke-linejoin="round"/>
<path d="M8.99696 9.33333H9.00296" stroke="#68B054" stroke-width="1.2" stroke-linecap="round" stroke-linejoin="round"/>
<path d="M6.66371 9.33333H6.66971" stroke="#68B054" stroke-width="1.2" stroke-linecap="round" stroke-linejoin="round"/>
<path d="M4.33033 9.33333H4.33633" stroke="#68B054" stroke-width="1.2" stroke-linecap="round" stroke-linejoin="round"/>
</svg>
