<svg width="25" height="25" viewBox="0 0 25 25" fill="none" xmlns="http://www.w3.org/2000/svg">
<path d="M9.37492 2.0835H15.6249C20.8333 2.0835 22.9166 4.16683 22.9166 9.37516V15.6252C22.9166 20.8335 20.8333 22.9168 15.6249 22.9168H9.37492C4.16659 22.9168 2.08325 20.8335 2.08325 15.6252V9.37516C2.08325 4.16683 4.16659 2.0835 9.37492 2.0835Z" stroke="#949494" stroke-width="1.5" stroke-linecap="round" stroke-linejoin="round"/>
<path d="M8.92725 15.9062L15.7397 9.09375" stroke="#949494" stroke-width="1.5" stroke-linecap="round" stroke-linejoin="round"/>
<path d="M9.35426 10.8022C10.0619 10.8022 10.6355 10.2286 10.6355 9.52101C10.6355 8.81339 10.0619 8.23975 9.35426 8.23975C8.64664 8.23975 8.073 8.81339 8.073 9.52101C8.073 10.2286 8.64664 10.8022 9.35426 10.8022Z" stroke="#949494" stroke-width="1.5" stroke-linecap="round" stroke-linejoin="round"/>
<path d="M16.1667 16.7602C16.8743 16.7602 17.448 16.1866 17.448 15.479C17.448 14.7714 16.8743 14.1978 16.1667 14.1978C15.4591 14.1978 14.8855 14.7714 14.8855 15.479C14.8855 16.1866 15.4591 16.7602 16.1667 16.7602Z" stroke="#949494" stroke-width="1.5" stroke-linecap="round" stroke-linejoin="round"/>
</svg>
