<svg width="16" height="17" viewBox="0 0 16 17" fill="none" xmlns="http://www.w3.org/2000/svg">
<path d="M2.1134 5.45996L8.00006 8.86662L13.8467 5.47994" stroke="#68B054" stroke-width="1.2" stroke-linecap="round" stroke-linejoin="round"/>
<path d="M8 14.9065V8.85986" stroke="#68B054" stroke-width="1.2" stroke-linecap="round" stroke-linejoin="round"/>
<path d="M6.62004 2.1535L3.06004 4.13352C2.25337 4.58018 1.59338 5.70017 1.59338 6.62017V10.3869C1.59338 11.3069 2.25337 12.4268 3.06004 12.8735L6.62004 14.8535C7.38004 15.2735 8.6267 15.2735 9.3867 14.8535L12.9467 12.8735C13.7534 12.4268 14.4134 11.3069 14.4134 10.3869V6.62017C14.4134 5.70017 13.7534 4.58018 12.9467 4.13352L9.3867 2.1535C8.62003 1.72683 7.38004 1.72683 6.62004 2.1535Z" stroke="#68B054" stroke-width="1.2" stroke-linecap="round" stroke-linejoin="round"/>
<path d="M11.3334 9.32674V6.88676L5.00671 3.2334" stroke="#68B054" stroke-width="1.2" stroke-linecap="round" stroke-linejoin="round"/>
</svg>
