<svg width="25" height="25" viewBox="0 0 25 25" fill="none" xmlns="http://www.w3.org/2000/svg">
<path d="M9.37498 2.0835H15.625C20.8333 2.0835 22.9166 4.16683 22.9166 9.37516V15.6252C22.9166 20.8335 20.8333 22.9168 15.625 22.9168H9.37498C4.16665 22.9168 2.08331 20.8335 2.08331 15.6252V9.37516C2.08331 4.16683 4.16665 2.0835 9.37498 2.0835Z" stroke="#949494" stroke-width="1.5" stroke-linecap="round" stroke-linejoin="round"/>
<path d="M8.92712 15.9062L15.7396 9.09375" stroke="#949494" stroke-width="1.5" stroke-linecap="round" stroke-linejoin="round"/>
<path d="M9.3542 10.8022C10.0618 10.8022 10.6354 10.2286 10.6354 9.52101C10.6354 8.81339 10.0618 8.23975 9.3542 8.23975C8.64658 8.23975 8.07294 8.81339 8.07294 9.52101C8.07294 10.2286 8.64658 10.8022 9.3542 10.8022Z" stroke="#949494" stroke-width="1.5" stroke-linecap="round" stroke-linejoin="round"/>
<path d="M16.1667 16.7602C16.8743 16.7602 17.4479 16.1866 17.4479 15.479C17.4479 14.7714 16.8743 14.1978 16.1667 14.1978C15.4591 14.1978 14.8854 14.7714 14.8854 15.479C14.8854 16.1866 15.4591 16.7602 16.1667 16.7602Z" stroke="#949494" stroke-width="1.5" stroke-linecap="round" stroke-linejoin="round"/>
</svg>
