<svg width="16" height="17" viewBox="0 0 16 17" fill="none" xmlns="http://www.w3.org/2000/svg">
<path d="M13.9401 7.91288C13.9401 11.1729 11.5734 14.2262 8.34007 15.1195C8.12007 15.1795 7.88005 15.1795 7.66005 15.1195C4.42672 14.2262 2.06006 11.1729 2.06006 7.91288V4.9862C2.06006 4.43953 2.4734 3.81954 2.98673 3.61287L6.70005 2.09289C7.53339 1.75289 8.47339 1.75289 9.30672 2.09289L13.0201 3.61287C13.5267 3.81954 13.9467 4.43953 13.9467 4.9862L13.9401 7.91288Z" stroke="#68B054" stroke-width="1.2" stroke-linecap="round" stroke-linejoin="round"/>
<path d="M7.99996 8.83366C8.73634 8.83366 9.33329 8.23671 9.33329 7.50033C9.33329 6.76395 8.73634 6.16699 7.99996 6.16699C7.26358 6.16699 6.66663 6.76395 6.66663 7.50033C6.66663 8.23671 7.26358 8.83366 7.99996 8.83366Z" stroke="#68B054" stroke-width="1.2" stroke-miterlimit="10" stroke-linecap="round" stroke-linejoin="round"/>
<path d="M8 8.83398V10.834" stroke="#68B054" stroke-width="1.2" stroke-miterlimit="10" stroke-linecap="round" stroke-linejoin="round"/>
</svg>
