<svg width="16" height="17" viewBox="0 0 16 17" fill="none" xmlns="http://www.w3.org/2000/svg">
<path d="M8.10671 7.74683C8.04004 7.74016 7.96004 7.74016 7.88671 7.74683C6.30004 7.6935 5.04004 6.3935 5.04004 4.7935C5.04004 3.16016 6.36004 1.8335 8.00004 1.8335C9.63337 1.8335 10.96 3.16016 10.96 4.7935C10.9534 6.3935 9.69337 7.6935 8.10671 7.74683Z" stroke="#68B054" stroke-width="1.25" stroke-linecap="round" stroke-linejoin="round"/>
<path d="M4.77335 10.2065C3.16002 11.2865 3.16002 13.0465 4.77335 14.1198C6.60669 15.3465 9.61335 15.3465 11.4467 14.1198C13.06 13.0398 13.06 11.2798 11.4467 10.2065C9.62002 8.9865 6.61335 8.9865 4.77335 10.2065Z" stroke="#68B054" stroke-width="1.25" stroke-linecap="round" stroke-linejoin="round"/>
</svg>
