<?xml version="1.0" encoding="UTF-8"?>
<svg id="a" data-name="Layer 1" xmlns="http://www.w3.org/2000/svg" width="759.99" height="723.44" viewBox="0 0 759.99 723.44">
  <path d="m460.43,559.34c-26-4.02-41.83-2.82-58.98,4.51,1.32,2.44,2.56,4.87,3.92,7.23,17.54,30.39,35.29,60.66,52.57,91.19,13.94,24.65,1.48,53.53-25.45,60.04-17.45,4.22-34.76-3.67-44.7-20.77-19.43-33.44-38.7-66.97-58.05-100.45q-14.86-25.72-41.66-36.45c-2.71-1.08-6.01-.94-9.04-.94-70.75-.05-141.5.02-212.26-.06-31.78-.04-56.14-17.51-64.07-46.1-1.69-6.09-2.49-12.61-2.53-18.94-.22-41.79-.25-83.58-.08-125.38.26-61.28,48.53-109.95,109.8-110.19,77.42-.31,154.83-.32,232.25.02,41.16.18,72.62,18.59,94.71,53.2.93,1.45,1.95,2.85,3.33,4.88,12.61-8.04,24.94-15.75,37.05-23.77,1.97-1.3,3.15-3.93,4.43-6.11,20.22-34.61,55.04-43.87,89.38-23.25,27.55,16.55,45.57,41.7,59.74,69.71,23.13,45.73,34.64,94.3,30.33,145.55-1.52,18.02-.26,34.55,4.02,52.24,14.11,58.31-26.77,115.29-87.03,124.2-57.65,8.52-111.82-34.99-116.82-93.82-.19-2.25-.59-4.48-.87-6.55Zm-197.5-17.65c-3.68-9.38-7.72-18.42-10.76-27.79-3.16-9.72-5.58-19.7-7.96-29.65-10.71-44.81,13.68-87.71,57.8-101.4,12.7-3.94,25.65-7.03,38.48-10.55,11.34-3.11,23.56-4.56,33.81-9.83,16.31-8.38,31.3-19.33,47.4-29.54-16.91-29.86-41.57-47.71-75.6-48.08-79.69-.86-159.4-.69-239.09-.13-45.5.32-84.41,39.07-85.18,84.53-.75,44.07-.53,88.17-.01,132.25.21,17.72,9.48,30.81,26.02,37.41,15.92,6.35,32.63,2.25,49.46,3.19,0-22.86-.1-44.37.06-65.88.06-7.72,4.42-12.43,10.74-12.48,6.3-.05,10.61,4.71,10.68,12.35.13,14.35.05,28.71.05,43.06,0,7.36,0,14.72,0,22.52h144.11Zm376.17-57.18c.47-1.12.8-1.55.82-1.99,3.33-57.88-10.79-111.15-42.91-159.4-10.87-16.33-24.14-30.65-42.19-39.43-20.1-9.77-38.94-5.25-51.01,13.32-5.62,8.64-10.07,18.56-12.7,28.52-9.25,35.01-6.46,70.12,2.13,104.84,3.38,13.66,8.21,26.96,12.38,40.45,48.83-27.15,92.6-22.45,133.49,13.68Zm-268.41-98.12c-22.28,6.1-43.71,11.25-64.67,17.88-30.3,9.59-48.02,40.53-41.54,71.55,2.67,12.75,5.94,25.45,9.99,37.84,9.48,28.98,38.49,47.2,68.66,41.82,19.84-3.53,39.19-9.8,58.74-14.89,3.07-.8,6.08-1.82,9.4-2.82-13.61-50.78-26.98-100.66-40.58-151.39Zm194.09,88.65c-45.67-.11-82.16,36.05-82.42,81.67-.25,45.01,36.26,81.98,81.15,82.15,46.05.17,82.68-36.15,82.77-82.08.09-45.03-36.4-81.63-81.5-81.73Zm-174-96.93c14.14,52.75,28.16,105.01,42.18,157.31,10.44.65,20.05,1.25,29.42,1.83,6.23-22.27,11.3-33.44,22.31-46.11,3.8-4.38,3.8-7.66,1.67-12.76-13.05-31.2-21.06-63.7-21.94-97.57-.44-16.77,1.03-33.59,1.64-50.56-24.65,15.67-49.86,31.69-75.28,47.85Zm-11.35,191.09c-12.88,3.19-24.93,6.18-37.48,9.29,1.01,1.99,1.82,3.8,2.8,5.51,20.57,35.67,41.08,71.37,61.78,106.96,6.08,10.46,16.7,13.58,26.13,8.28,8.81-4.96,12.36-15.97,7.06-25.3-19.82-34.89-40-69.56-60.29-104.73Z" style="fill: #58bb47; stroke-width: 0px;"/>
  <path d="m222.85,0c67.27.2,120.59,54.18,120.31,121.81-.27,65.87-55.17,119.86-121.42,119.4-65.7-.46-120.05-55.16-119.74-120.51C102.32,53.67,156.25-.19,222.85,0Zm.18,21.51c-54.38-.24-99.23,44.04-99.5,98.24-.27,54.67,44.46,99.9,98.79,99.9,54.59,0,99.06-44.08,99.3-98.43.25-55.12-43.6-99.47-98.6-99.72Z" style="fill: #58bb47; stroke-width: 0px;"/>
  <path d="m713.94,267.24c-2.35,4.01-3.5,7.24-5.68,9.46-13.79,14.08-27.73,28.02-41.78,41.84-5.59,5.5-11.7,5.62-16.28.93-4.18-4.29-4.08-10.79.82-15.77,14.01-14.23,27.96-28.53,42.52-42.18,2.71-2.54,8.45-3.56,12.23-2.72,3.05.68,5.23,5.21,8.17,8.44Z" style="fill: #58bb47; stroke-width: 0px;"/>
  <path d="m684.09,377.51c-6.22-.15-10.12-3.15-11.02-8.93-.96-6.2,2.21-10.36,8.17-12.03,12.54-3.51,25.13-6.85,37.7-10.24,5.67-1.53,11.31-3.21,17.03-4.52,7.74-1.77,13.19.98,14.73,7.11,1.6,6.34-1.62,11.56-9.07,13.62-17.72,4.92-35.5,9.58-53.27,14.31-1.47.39-3.02.49-4.28.69Z" style="fill: #58bb47; stroke-width: 0px;"/>
  <path d="m698.73,420.89c5.48,1.47,12.12,3.26,18.77,5.04,11.09,2.97,22.23,5.77,33.26,8.94,6.85,1.97,10.29,7.34,8.93,13.02-1.43,5.95-6.8,9.42-13.71,7.69-17.32-4.34-34.56-9.03-51.76-13.86-5.61-1.58-8.42-5.95-7.49-11.75.93-5.76,4.82-8.78,11.99-9.07Z" style="fill: #58bb47; stroke-width: 0px;"/>
  <path d="m363.37,453.17c-1.8,1.65-4.59,6.19-8.41,7.36-16.82,5.15-33.89,9.48-50.96,13.77-6.39,1.6-11.92-1.77-13.06-7.44-1.29-6.43,1.14-11.22,7.62-13.02,16.95-4.72,33.92-9.44,51-13.65,7.89-1.94,13.74,2.79,13.81,12.98Z" style="fill: #58bb47; stroke-width: 0px;"/>
  <path d="m374.51,494.87c-1.87,1.65-4.75,5.77-8.64,7.28-7.81,3.04-16.12,4.84-24.31,6.8-6.27,1.5-11.24-.63-13.53-6.94-2.12-5.85,1.07-11.73,7.65-13.73,8.3-2.52,16.7-4.83,25.18-6.62,7.83-1.66,13.77,3.13,13.65,13.2Z" style="fill: #58bb47; stroke-width: 0px;"/>
  <path d="m575.94,613.26c-.12,2.19-.18,4.21-.36,6.22-.59,6.52-4.93,11.06-10.69,10.74-6.25-.35-10.63-4.06-10.44-10.11.2-6.48-2.64-8.62-8.03-10.68-11.67-4.46-19.36-13.14-23.01-25.13-2.14-7.05.31-12.73,5.9-14.8,6.12-2.26,12.24.39,14.18,7.81,3.91,14.93,25.15,17.47,34.71,12.32,7.61-4.1,8.86-11.46,2-16.56-3.69-2.74-8.75-3.79-13.31-5.19-7.05-2.16-14.62-3.08-21.24-6.11-11.52-5.27-18.52-14.5-18.44-27.73.08-13.73,7.22-23.37,19.25-28.98,5.18-2.42,8.17-4.43,7.95-10.88-.22-6.46,4.29-10.67,10.85-10.43,6.44.23,10.65,4.32,10.2,11.03-.36,5.41,1.89,7.45,6.57,9.32,10.48,4.2,17.43,12.32,21.93,22.53,3.07,6.96,1.33,13.12-4.28,15.84-5.71,2.77-11.44.33-15.07-6.43-6.74-12.54-15.68-17.19-26.59-12.4-3.81,1.67-8.5,6.5-8.6,10-.09,3.33,4.67,8.26,8.42,9.88,5.97,2.58,12.9,2.88,19.38,4.36,20.92,4.78,33.49,24.15,27.38,42.29-3.52,10.45-11.1,16.93-21.23,20.66-2.36.87-4.78,1.57-7.43,2.43Z" style="fill: #58bb47; stroke-width: 0px;"/>
</svg>