<svg width="25" height="25" viewBox="0 0 25 25" fill="none" xmlns="http://www.w3.org/2000/svg">
<path d="M3.13544 11.6875V16.3646C3.13544 21.0417 5.01044 22.9167 9.68752 22.9167H15.3021C19.9792 22.9167 21.8542 21.0417 21.8542 16.3646V11.6875" stroke="#949494" stroke-width="1.5" stroke-linecap="round" stroke-linejoin="round"/>
<path d="M12.5 12.5002C14.4062 12.5002 15.8125 10.9481 15.625 9.04183L14.9375 2.0835H10.0729L9.37499 9.04183C9.18749 10.9481 10.5937 12.5002 12.5 12.5002Z" stroke="#949494" stroke-width="1.5" stroke-linecap="round" stroke-linejoin="round"/>
<path d="M19.0729 12.5002C21.1771 12.5002 22.7187 10.7918 22.5104 8.69808L22.2187 5.8335C21.8437 3.12516 20.8021 2.0835 18.0729 2.0835H14.8958L15.625 9.38558C15.8021 11.1043 17.3541 12.5002 19.0729 12.5002Z" stroke="#949494" stroke-width="1.5" stroke-linecap="round" stroke-linejoin="round"/>
<path d="M5.875 12.5002C7.59375 12.5002 9.14583 11.1043 9.3125 9.38558L9.54167 7.0835L10.0417 2.0835H6.86458C4.13542 2.0835 3.09375 3.12516 2.71875 5.8335L2.4375 8.69808C2.22917 10.7918 3.77083 12.5002 5.875 12.5002Z" stroke="#949494" stroke-width="1.5" stroke-linecap="round" stroke-linejoin="round"/>
<path d="M12.5 17.7085C10.7604 17.7085 9.89581 18.5731 9.89581 20.3127V22.9168H15.1041V20.3127C15.1041 18.5731 14.2396 17.7085 12.5 17.7085Z" stroke="#949494" stroke-width="1.5" stroke-linecap="round" stroke-linejoin="round"/>
</svg>
