<svg width="25" height="25" viewBox="0 0 25 25" fill="none" xmlns="http://www.w3.org/2000/svg">
<path d="M18.8959 22.521C17.9792 22.7919 16.8959 22.9169 15.625 22.9169H9.37502C8.10419 22.9169 7.02085 22.7919 6.10419 22.521C6.33335 19.8127 9.1146 17.6772 12.5 17.6772C15.8854 17.6772 18.6667 19.8127 18.8959 22.521Z" stroke="#949494" stroke-width="1.5" stroke-linecap="round" stroke-linejoin="round"/>
<path d="M15.625 2.0835H9.37498C4.16665 2.0835 2.08331 4.16683 2.08331 9.37516V15.6252C2.08331 19.5627 3.27081 21.7189 6.10415 22.521C6.33331 19.8127 9.11456 17.6772 12.5 17.6772C15.8854 17.6772 18.6666 19.8127 18.8958 22.521C21.7291 21.7189 22.9166 19.5627 22.9166 15.6252V9.37516C22.9166 4.16683 20.8333 2.0835 15.625 2.0835ZM12.5 14.7606C10.4375 14.7606 8.77081 13.0835 8.77081 11.021C8.77081 8.95851 10.4375 7.29183 12.5 7.29183C14.5625 7.29183 16.2291 8.95851 16.2291 11.021C16.2291 13.0835 14.5625 14.7606 12.5 14.7606Z" stroke="#949494" stroke-width="1.5" stroke-linecap="round" stroke-linejoin="round"/>
<path d="M16.2292 11.0207C16.2292 13.0832 14.5625 14.7602 12.5 14.7602C10.4375 14.7602 8.77081 13.0832 8.77081 11.0207C8.77081 8.95819 10.4375 7.2915 12.5 7.2915C14.5625 7.2915 16.2292 8.95819 16.2292 11.0207Z" stroke="#949494" stroke-width="1.5" stroke-linecap="round" stroke-linejoin="round"/>
</svg>
