<svg width="16" height="17" viewBox="0 0 16 17" fill="none" xmlns="http://www.w3.org/2000/svg">
<path d="M12.0266 9.53316C11.7466 9.8065 11.5866 10.1998 11.6266 10.6198C11.6866 11.3398 12.3466 11.8665 13.0666 11.8665H14.3333V12.6598C14.3333 14.0398 13.2066 15.1665 11.8266 15.1665H4.17329C2.79329 15.1665 1.66663 14.0398 1.66663 12.6598V8.17318C1.66663 6.79318 2.79329 5.6665 4.17329 5.6665H11.8266C13.2066 5.6665 14.3333 6.79318 14.3333 8.17318V9.13318H12.9866C12.6133 9.13318 12.2733 9.27983 12.0266 9.53316Z" stroke="#68B054" stroke-width="1.2" stroke-linecap="round" stroke-linejoin="round"/>
<path d="M1.66663 8.77337V5.72674C1.66663 4.9334 2.15329 4.22671 2.89329 3.94671L8.18663 1.94671C9.01329 1.63337 9.89996 2.24673 9.89996 3.13339V5.66672" stroke="#68B054" stroke-width="1.2" stroke-linecap="round" stroke-linejoin="round"/>
<path d="M15.0392 9.81376V11.1871C15.0392 11.5538 14.7458 11.8538 14.3725 11.8671H13.0658C12.3458 11.8671 11.6858 11.3404 11.6258 10.6204C11.5858 10.2004 11.7458 9.80711 12.0258 9.53377C12.2725 9.28044 12.6125 9.13379 12.9858 9.13379H14.3725C14.7458 9.14712 15.0392 9.44709 15.0392 9.81376Z" stroke="#68B054" stroke-width="1.2" stroke-linecap="round" stroke-linejoin="round"/>
<path d="M4.66663 8.5H9.33329" stroke="#68B054" stroke-width="1.2" stroke-linecap="round" stroke-linejoin="round"/>
</svg>
